<svg version="1.2" xmlns="http://www.w3.org/2000/svg" viewBox="0 0 800 800" width="800" height="800"><style>.a{fill:none}.b{fill:#00d4ff}</style><path fill-rule="evenodd" class="a" d="m0 0h800v800h-800z"/><path class="b" d="m740 190l-130-130c-3-3.2-6.6-5.8-10.6-7.6-4-1.7-8.3-2.7-12.7-2.7-4.4 0-8.8 1-12.8 2.7-4 1.8-7.6 4.4-10.6 7.6l-206.6 206.7-46.7 46.6-46.7 46.7-46.6 46.7-156.7 156.6q-2.3 2.3-4.2 5-1.8 2.7-3.1 5.7-1.3 3-2 6.2-0.7 3.2-0.7 6.5v130c0 4.3 0.9 8.7 2.5 12.7 1.7 4.1 4.2 7.7 7.3 10.8 3.1 3.1 6.7 5.6 10.8 7.3 4 1.6 8.4 2.5 12.7 2.5h130q3.3 0 6.5-0.7 3.2-0.7 6.2-2 3-1.3 5.7-3.1 2.7-1.9 5-4.2l170-171.7 48.3-46.6 16.7-16.7 46.6-46.7 221.7-221.6c3.2-3 5.8-6.6 7.6-10.6 1.7-4 2.7-8.4 2.7-12.8 0-4.4-1-8.7-2.7-12.7-1.8-4-4.4-7.6-7.6-10.6zm-541.7 493.3h-81.6v-81.6l373.3-373.4 81.7 81.7zm420-420l-81.7-81.7 50-51.6 83.3 83.3z"/><path class="b" d="m150 50c-23.7 0.2-46.8 7.7-66.1 21.4-19.4 13.7-34.1 32.9-42.3 55.2-8.1 22.2-9.3 46.4-3.3 69.4 5.9 22.9 18.8 43.5 36.7 59l118.3 103.3 46.7-48.3-121.7-105c-2.8-2.1-5.3-4.6-7.6-7.3-2.3-2.8-4.2-5.7-5.8-8.9-1.6-3.2-2.8-6.5-3.6-10-0.8-3.4-1.3-6.9-1.3-10.5q0-5.1 0.9-10.1 1-5 2.9-9.7 2-4.7 4.8-9 2.8-4.2 6.4-7.8 3.4-3.6 7.4-6.4 4-2.8 8.6-4.7 4.5-2 9.3-2.9 4.8-1 9.7-1h3.3q5 0 9.9 1.2 4.9 1.1 9.4 3.3 4.6 2.2 8.5 5.2 4 3.1 7.2 6.9l106.7 123.4 48.3-48.4-103.3-116.6c-5.3-6.2-11.2-11.8-17.6-16.8-6.4-4.9-13.3-9.2-20.6-12.8-7.3-3.6-14.9-6.4-22.8-8.4-7.9-2.1-15.9-3.3-24-3.7z"/><path class="b" d="m566.7 478.3l-103.4 101.7 36.7 35c-0.3 8.9 0.3 17.8 1.8 26.6 1.6 8.8 4 17.4 7.3 25.7 3.3 8.3 7.4 16.3 12.3 23.7 4.9 7.5 10.6 14.4 16.9 20.7 38.4 31.6 96.7 38.3 143.4 38.3 46.6 0 63.3-5 70-5 6.6 0 15-10 15-13.3 0-3.4-38.4-21.7-46.7-60-8.3-38.4 11.7-91.7-30-130-4.5-4.4-9.5-8.3-14.7-11.7-5.3-3.4-10.9-6.2-16.8-8.5-5.8-2.3-11.9-4-18.1-5.1-6.2-1.1-12.5-1.6-18.7-1.4h-20zm55 103.3q3.2-0.3 6.4 0.1 3.2 0.3 6.2 1.4 3 1.1 5.7 2.8 2.7 1.8 5 4.1c6.7 6.6 8.3 18.3 6.7 45q-0.2 6-0.1 12.1 0.1 6.1 0.5 12.1 0.4 6.1 1.2 12.1 0.7 6 1.7 12-9.5-0.3-18.8-1.8-9.4-1.6-18.5-4.3-9-2.8-17.7-6.7-8.6-3.9-16.7-8.9-4-4.6-7.2-9.9-3.2-5.2-5.3-11-2.1-5.8-3.2-11.8-1-6.1-0.9-12.3v-6.6l8.3-6.7 6.7-8.3 15-11.7h23.3"/></svg>