<svg version="1.2" xmlns="http://www.w3.org/2000/svg" viewBox="0 0 801 801" width="801" height="801">
	<title>games-control</title>
	<style>
		.s0 { fill: #ffffff } 
	</style>
	<g>
		<path class="s0" d="m42.9 728.7c19.3 12.8 44.8 10.4 61.6-5.5 0 0 95.8-82 124.2-104.8 8.7-7 19.7-10.8 31-10.8h140.3 140.3c11.3 0 22.3 3.8 31 10.8 28.4 22.8 124.2 104.8 124.2 104.8 16.8 15.9 42.3 18.3 61.6 5.5 63-41.9 42.3-154.3 26.9-216.9-12.8-51.9-30.8-102.5-51.3-151.7-30.3-72.5-96.6-164.9-188.8-145.1-9.1 2.2-19.4 7.5-26.9 12.1-7.7 4.6-16.5 7.1-25.6 7.1h-58.9v-138.6c0-18-14.5-32.5-32.5-32.5-18 0-32.5 14.5-32.5 32.5v138.6h-58.9c-9.1 0-17.9-2.5-25.6-7.2-7.5-4.5-17.8-9.8-26.9-12.1-92.1-19.8-158.5 72.6-188.8 145.1-20.5 49.3-38.4 99.9-51.3 151.8-15.4 62.6-36.1 175 26.9 216.9zm552.6-423.8c19.5 0 35.3 15.8 35.3 35.3 0 19.5-15.8 35.4-35.3 35.4-19.5 0-35.4-15.9-35.4-35.4 0-19.5 15.9-35.3 35.4-35.3zm-83.7 102.9c19.5 0 35.3 15.8 35.3 35.3 0 19.5-15.8 35.4-35.3 35.4-19.5 0-35.4-15.9-35.4-35.4 0-19.5 15.9-35.3 35.4-35.3zm-350.8-39.5h41.1v-41.1c0-13.5 10.9-24.4 24.4-24.4 13.5 0 24.4 10.9 24.4 24.4v41.1h41.1c13.5 0 24.4 10.9 24.4 24.4 0 13.5-10.9 24.4-24.4 24.4h-41.1v41.1c0 13.5-10.9 24.4-24.4 24.4-13.5 0-24.4-10.9-24.4-24.4v-41.1h-41.1c-13.5 0-24.4-10.9-24.4-24.4 0-13.5 10.9-24.4 24.4-24.4z"/>
	</g>
</svg>