<svg version="1.2" xmlns="http://www.w3.org/2000/svg" viewBox="0 0 801 801" width="801" height="801">
	<title>growing-plant</title>
	<style>
		.s0 { fill: #ffffff } 
	</style>
	<g>
		<g>
			<path class="s0" d="m713.9 775q-0.3-0.8-0.5-1.5c-18.9-57.8-72.6-96.7-133.4-96.7-22 0-43 5.2-61.8 14.4q-2.9-2.8-6-5.4c-27.8-24.1-62.5-38.6-98.9-41.6v-53.7c10.8-5.2 25.7-6.1 42.9-7.1 34.2-2 76.9-4.6 113.1-44.2 46.6-50.9 56.5-143 46.2-166.3-3.5-8-9.1-9.2-12.2-9.2-3 0-5.9 1.1-8.5 3.2-9.4 7.6-26.3 8.5-45.7 9.5-34.2 1.9-76.7 4.2-111.7 42.4-9.6 10.5-17.6 22.5-24.1 35.3v-124.4c8.7-9.1 21.7-17 36.3-25.8 33.9-20.4 76.1-45.9 91.8-105.5 18.3-69.4-12.7-158.4-34.5-186.7-6.1-7.9-11.8-11.7-17.6-11.7-2.5 0-8.7 0.8-12.1 8.7-5.7 13.2-22.7 23.3-42.3 35-33.9 20.1-76.1 45.2-91.3 102.8-19.1 72.6 13.8 157.4 34.7 184.6q0.9 1.1 1.7 2.1v67.2c-6.2-23-17.9-46.8-43.1-67.4-38.3-31.2-96-42.3-133.8-42.3-36.7 0-41 9.6-42.4 12.7-0.9 2.2-2.6 7.9 2.7 13.8 8.1 9 9.9 25.7 12.1 45.1 3.7 34 8.4 76.4 48.5 109.2 37.5 30.6 92 41.6 130.6 41.6q15.2-0.1 25.4-2.1v133.6c-34.9 3.8-68.1 18-94.9 41.2q-3 2.6-5.9 5.4c-18.8-9.2-39.8-14.4-61.8-14.4-28.9 0-56.7 8.7-80.3 25.2-23.1 16.2-40.6 38.5-50.7 64.7-3.8 9.7-3.5 18.1 0.7 24.3 4.1 6 11.1 9 21 9h117.4 131.6 83.1 131.6 126.1c7.5 0 12.8-2.2 15.9-6.6 4.5-6.5 1.7-14.3 0.1-18.4zm-369.8-317.3q-0.7-0.6-1.3-1.3l-0.7-0.7-0.2-0.1v-0.1c-0.1 0 0.3 0.4 0.1 0.2l-0.1-0.1-0.3-0.3q-1.3-1.1-2.6-2.2c-1.8-1.5-3.6-3-5.6-4.4-7.7-5.7-16.8-11-26.5-16.1-9.7-5.1-20-10.2-29.6-16.1-4.8-3-9.3-6.2-13.5-9.6-4.1-3.3-7.8-7.1-10.8-10.8-3-3.9-5.3-7.6-6.8-11.3q-0.6-1.3-1-2.6-0.5-1.3-0.8-2.5c-0.4-1.6-0.8-3.1-1-4.4q-0.3-2.1-0.4-3.7c-0.1-1 0-1.9 0-2.6 0.1-1.4 0.1-2.1 0.1-2.1 0 0 0.4 0.6 1.2 1.8 0.4 0.6 0.8 1.3 1.4 2.1q0.9 1.2 2 2.7 1.2 1.4 2.6 3c1.1 1 2 2.2 3.3 3.3 2.3 2.2 5.3 4.3 8.6 6.4q4.9 3.2 11.2 6.1c4.1 2 8.6 3.9 13.4 5.9 9.6 4 20.3 8.3 30.9 13.8 5.3 2.8 10.6 5.9 15.6 9.5 5 3.5 9.7 7.4 13.9 11.7 2.1 2.2 4 4.4 5.8 6.7q1.3 1.7 2.6 3.4l0.3 0.5 0.1 0.1c-0.1-0.2 0.2 0.2 0.2 0.2v0.1l0.1 0.2 0.5 0.8q0.5 0.8 1 1.6c2.6 4.2 5 8.3 7.1 12.1 1 2 2 3.8 2.9 5.6q1.4 2.7 2.5 5.1c1.6 3.3 2.8 6.2 3.8 8.6 2 4.8 2.9 7.8 2.9 7.8 0 0-2.5-1.7-6.6-4.9-4.1-3.1-9.5-7.9-16.1-13.7-3.2-3-6.7-6.2-10.2-9.7zm55.2-150.7c0.9-2.8 2.2-6.2 3.6-10.1 1.5-3.8 3.2-8.1 5-12.8 1.9-4.7 4.1-9.7 6.4-14.9q0.5-1 0.9-2l0.5-1 0.1-0.2v-0.1c0.1-0.1-0.2 0.4-0.1 0.1l0.1-0.1 0.2-0.4q0.7-1.9 1.4-3.8c0.8-2.6 1.8-5.2 2.5-8 3.1-10.9 5-23.1 6.4-35.8 1.5-12.7 2.6-26 4.8-38.8 1.1-6.3 2.5-12.6 4.3-18.4 1.8-5.9 4.2-11.4 6.9-16.2 2.7-4.8 5.6-8.9 8.8-12.1 0.8-0.8 1.5-1.6 2.3-2.3q1.2-1 2.3-1.9c1.5-1.2 2.9-2.2 4.2-3q2.1-1.2 3.7-2.1c1-0.5 1.9-0.8 2.7-1.2 1.5-0.5 2.3-0.9 2.3-0.9 0 0-0.5 0.7-1.5 2-0.5 0.7-1.2 1.4-1.8 2.4q-1 1.3-2.2 3.1-1 1.8-2.3 4.1c-0.7 1.5-1.6 3-2.3 4.8q-0.5 1.3-1.1 2.7-0.5 1.5-1 3c-0.3 0.9-0.5 2-0.8 3.1q-0.5 1.5-0.8 3.2-1.6 6.8-2.2 14.8c-0.5 5.3-0.8 11.1-1 17.1-0.4 12.1-0.6 25.5-2.1 39.2-0.8 6.9-1.9 13.8-3.6 20.6-1.6 6.9-3.8 13.6-6.6 19.8-1.3 3.2-2.9 6.2-4.5 9q-1.3 2.2-2.6 4.2l-0.3 0.5-0.1 0.2-0.2 0.2v0.1l-0.2 0.2-0.6 0.9q-0.6 0.9-1.3 1.8c-3.4 4.6-6.7 8.9-9.9 12.9-1.6 1.9-3.1 3.8-4.5 5.6q-2.3 2.7-4.4 5c-2.8 3.1-5.3 5.7-7.4 7.9-4.2 4.3-6.8 6.6-6.8 6.6 0 0 0.9-3.4 2.8-9zm45.4 231.7l0.1-0.1 0.3-0.3q1.2-1.1 2.5-2.3c1.7-1.6 3.4-3.2 5-5 6.5-7.1 12.7-15.6 18.9-24.7 6.2-9.1 12.3-18.7 19.3-27.6 3.5-4.4 7.1-8.6 11-12.3 3.8-3.8 7.9-7 12-9.6 4.1-2.5 8.1-4.4 11.9-5.5q1.4-0.5 2.7-0.7 1.4-0.3 2.6-0.6c1.6-0.2 3.1-0.4 4.5-0.4q2.1-0.1 3.7 0c1 0 1.8 0.2 2.5 0.3 1.4 0.2 2.2 0.3 2.2 0.3 0 0-0.7 0.3-1.9 1-0.7 0.3-1.5 0.6-2.3 1.1q-1.3 0.8-2.9 1.7-1.5 1-3.3 2.3c-1.1 1-2.4 1.7-3.6 2.9-2.5 2.1-4.9 4.8-7.4 7.8q-3.6 4.6-7.2 10.5c-2.4 3.9-4.8 8.2-7.3 12.7-5.1 9.1-10.5 19.2-17.2 29.2-3.4 4.9-7.1 9.8-11.1 14.4-4.1 4.6-8.5 8.9-13.3 12.5-2.3 1.9-4.8 3.6-7.2 5.1q-1.9 1.1-3.7 2.2l-0.5 0.2-0.1 0.1c0.2-0.1-0.3 0.2-0.3 0.2l-0.2 0.1-0.9 0.4q-0.8 0.4-1.7 0.8c-4.5 2.1-8.8 4-12.9 5.7-2 0.8-3.9 1.6-5.8 2.3q-2.8 1.1-5.4 1.9c-3.4 1.2-6.4 2.1-8.9 2.8-5.1 1.5-8.1 2.1-8.1 2.1 0 0 2-2.4 5.6-6.1 3.6-3.7 8.9-8.6 15.4-14.5 3.3-2.8 6.9-5.9 10.7-9q0.8-0.6 1.5-1.2l0.7-0.6 0.2-0.2h0.1c0 0-0.4 0.2-0.2 0.1z"/>
		</g>
	</g>
</svg>