<svg version="1.2" xmlns="http://www.w3.org/2000/svg" viewBox="0 0 800 800" width="800" height="800">
	<title>learn</title>
	<style>
		.s0 { fill: #ffffff } 
	</style>
	<path fill-rule="evenodd" class="s0" d="m765.8 266c6.5 3 12 7.8 15.8 13.8 3.8 6.1 5.9 13.1 5.9 20.2 0 7.1-2.1 14.1-5.9 20.2-3.8 6-9.3 10.8-15.8 13.8l-71.7 33.3q1.4 2.2 2.5 4.7 1.2 2.4 1.9 5 0.8 2.5 1.1 5.2 0.4 2.6 0.4 5.3v162.5q0 2.4-0.3 4.8-0.3 2.3-0.9 4.6-0.6 2.3-1.5 4.6-0.9 2.2-2.1 4.3l-1.6-0.9c1.6 0.9 1.6 0.9 1.6 0.9v0.1l-0.1 0.2-0.4 0.6q-1.8 2.9-3.7 5.8-1.9 2.9-4 5.7-2 2.8-4.1 5.5-2.1 2.7-4.3 5.4-5.4 6.4-11.1 12.4-5.8 6-11.9 11.7-6.1 5.6-12.6 10.9-6.5 5.3-13.2 10.1c-45.3 32.6-115.5 63.3-217.3 63.3-101.6 0-177.2-30.6-227.6-61.9-25.1-15.6-43.9-31.3-56.6-43.3-6.3-6-11.2-11.2-14.6-14.9q-0.7-0.8-1.3-1.5-0.7-0.7-1.3-1.5-0.7-0.7-1.3-1.5-0.6-0.8-1.2-1.5l-0.4-0.5-0.2-0.2v-0.1l-0.1-0.1q-1.9-2.4-3.4-5.2-1.5-2.7-2.5-5.6-1-3-1.5-6-0.5-3.1-0.5-6.2v-162.5q0-2.7 0.4-5.3 0.3-2.7 1.1-5.2 0.7-2.6 1.9-5 1.1-2.5 2.5-4.7l-71.7-33.3c-6.5-3-12-7.8-15.8-13.8-3.8-6.1-5.9-13.1-5.9-20.2 0-7.1 2.1-14.1 5.9-20.2 3.8-6 9.3-10.8 15.8-13.8l350-162.5q3.7-1.7 7.7-2.6 4-0.9 8.1-0.9 4.1 0 8.1 0.9 4 0.9 7.7 2.6zm-103.3 284l31.1 17.4c-2.7-1.6-10.3-5.9-31.1-17.4zm-37.5-150.6l-209.2 97.1q-3.7 1.7-7.7 2.6-4 0.9-8.1 0.9-4.1 0-8.1-0.9-4-0.9-7.7-2.6l-209.2-97.1v136.2q5.6 5.5 11.5 10.7 6 5.2 12.2 10 6.2 4.9 12.6 9.4 6.5 4.5 13.2 8.6c40.2 25.1 102.2 50.7 188 50.7 85.7 0 140.5-25.5 173.4-49.2q5.5-3.9 10.7-8.2 5.3-4.4 10.2-9 4.9-4.7 9.4-9.7 4.6-5 8.8-10.3zm36-99.4l-261-121.2-260.9 121.2 260.9 121.1z"/>
</svg>