<svg version="1.2" xmlns="http://www.w3.org/2000/svg" viewBox="0 0 804 804" width="804" height="804">
	<title>programming</title>
	<style>
		.s0 { fill: #00d4ff } 
	</style>
	<g>
		<g>
			<path class="s0" d="m795 388l-204.1-204.2c-6.4-6.3-17.6-6.3-24 0l-44.2 44.3c-6.6 6.6-6.6 17.3 0 23.9l147.9 147.9-147.9 148c-6.6 6.6-6.6 17.3 0 23.9l44.2 44.3c3.2 3.2 7.5 5 12 5 4.5 0 8.8-1.8 12-5l204.1-204.2c6.7-6.6 6.7-17.3 0-23.9z"/>
			<path class="s0" d="m277.3 547.9l-147.9-147.9 147.9-148c3.2-3.1 5-7.4 5-11.9 0-4.5-1.8-8.8-5-12l-44.2-44.3c-3.2-3.1-7.5-4.9-12-4.9-4.5 0-8.8 1.8-12 4.9l-204.1 204.2c-6.7 6.6-6.7 17.3 0 23.9l204.1 204.2c3.2 3.2 7.5 5 12 5 4.5 0 8.8-1.8 12-5l44.2-44.3c6.6-6.6 6.6-17.3 0-23.9z"/>
			<path class="s0" d="m516.1 115.1c-2.1-3.9-5.8-6.8-10.1-8.1l-35.9-10.6c-8.9-2.7-18.3 2.5-21 11.4l-166.6 564.2c-1.2 4.3-0.8 8.9 1.4 12.9 2.1 3.9 5.8 6.8 10.1 8.1l35.8 10.6q2.5 0.7 4.8 0.7c7.4 0 14.1-4.8 16.3-12.1l166.6-564.2c1.2-4.3 0.8-8.9-1.4-12.9z"/>
		</g>
	</g>
</svg>