<svg version="1.2" xmlns="http://www.w3.org/2000/svg" viewBox="0 0 800 800" width="800" height="800">
	<title>thinking</title>
	<style>
		.s0 { fill: #ffffff } 
	</style>
	<g>
		<g>
			<path class="s0" d="m346.8 253.3c38.4 0 69.6 31.3 69.6 69.7 0 38.4-31.2 69.6-69.6 69.6-38.5 0-69.7-31.2-69.7-69.6 0-38.4 31.2-69.7 69.7-69.7z"/>
			<path class="s0" d="m88.5 656.8c3 36.5 35.9 51.9 90.6 43.2 52.1-8.4 78.3 15.5 85 44.2 0 0 1.9 15.4 3.1 32.9 0.9 12.9 11.6 22.9 24.5 22.9h320.9c13.5 0 24.5-11 24.5-24.5v-88.8c0-43.6 4.3-108.5 35.7-143 86.8-95.6 134.6-221 86.1-347.2-56.4-146.9-213.9-212.6-363.4-193.2-54.2 7.1-107.1 25.7-152.7 56.1-83.3 55.5-142.7 148.1-151.4 248.5-2.5 29.4 11.4 65.1 4.4 93.1-1.4 5.7-9.1 32.1-66.8 89-13.8 13.6-7.1 37 11.8 41.3 25.7 5.9 43.4 9.4 46 10.9 0 0 0.7 102.6 1.7 114.6zm394.2-421.7l3.9-9.6c-3.3-5.8-5.9-12-7.7-18.5l-9.6-4c-3.3-1.4-5.5-4.6-5.5-8.3v-10.9-11c0-3.6 2.2-6.9 5.5-8.3l9.6-3.9c1.8-6.6 4.4-12.8 7.7-18.6l-3.9-9.6c-1.4-3.3-0.7-7.2 1.9-9.7l7.8-7.8 7.7-7.8c2.6-2.5 6.4-3.3 9.8-1.9l9.5 4c5.9-3.3 12.1-5.9 18.6-7.8l4-9.5c1.4-3.3 4.6-5.5 8.2-5.5h11 11c3.6 0 6.9 2.2 8.2 5.5l4 9.5c6.6 1.9 12.8 4.5 18.6 7.8l9.6-4c3.3-1.4 7.2-0.6 9.7 1.9l7.8 7.8 7.7 7.8c2.6 2.5 3.4 6.4 2 9.7l-4 9.6c3.3 5.8 5.9 12 7.7 18.6l9.6 3.9c3.3 1.4 5.5 4.7 5.5 8.3v11 10.9c0 3.7-2.2 6.9-5.5 8.3l-9.6 4c-1.8 6.5-4.4 12.7-7.7 18.5l4 9.6c1.4 3.4 0.6 7.2-2 9.7l-7.7 7.8-7.8 7.8c-2.6 2.5-6.4 3.3-9.7 1.9l-9.6-3.9c-5.8 3.2-12 5.8-18.6 7.7l-4 9.5c-1.3 3.4-4.6 5.5-8.2 5.5h-11-11c-3.6 0-6.8-2.1-8.2-5.5l-4-9.5c-6.5-1.9-12.8-4.5-18.6-7.7l-9.5 3.9c-3.4 1.4-7.2 0.6-9.8-1.9l-7.7-7.8-7.8-7.8c-2.6-2.5-3.3-6.3-1.9-9.7zm-269.4 72.8c0-4.9 2.9-9.4 7.5-11.3l13.1-5.4c2.5-9 6.1-17.5 10.6-25.5l-5.5-13.1c-1.8-4.6-0.8-9.9 2.7-13.4l10.7-10.6 10.6-10.7c3.5-3.5 8.8-4.5 13.3-2.6l13.2 5.4c7.9-4.5 16.5-8.1 25.4-10.6l5.5-13.1c1.9-4.5 6.3-7.5 11.3-7.5h15.1 15c5 0 9.4 3 11.3 7.5l5.5 13.1c8.9 2.5 17.5 6.1 25.4 10.6l13.2-5.4c4.5-1.9 9.8-0.9 13.3 2.6l10.6 10.7 10.7 10.6c3.5 3.5 4.5 8.8 2.7 13.4l-5.5 13.1c4.5 8 8.1 16.5 10.6 25.5l13.1 5.4c4.6 1.9 7.5 6.4 7.5 11.3v15.1 15c0 5-2.9 9.4-7.5 11.3l-13.1 5.5c-2.5 9-6.1 17.5-10.6 25.4l5.5 13.2c1.8 4.6 0.8 9.8-2.7 13.3l-10.7 10.7-10.6 10.6c-3.5 3.5-8.8 4.6-13.3 2.7l-13.2-5.4c-7.9 4.4-16.5 8-25.4 10.5l-5.5 13.1c-1.9 4.6-6.3 7.6-11.3 7.6h-15-15.1c-4.9 0-9.4-3-11.3-7.6l-5.5-13.1c-8.9-2.5-17.5-6.1-25.4-10.5l-13.2 5.4c-4.5 1.9-9.8 0.8-13.3-2.7l-10.6-10.6-10.7-10.7c-3.5-3.5-4.5-8.7-2.7-13.3l5.5-13.2c-4.5-7.9-8.1-16.4-10.6-25.4l-13.1-5.5c-4.6-1.9-7.5-6.3-7.5-11.3v-15z"/>
			<path class="s0" d="m561.2 133c28 0 50.8 22.7 50.8 50.8 0 28-22.8 50.8-50.8 50.8-28 0-50.8-22.8-50.8-50.8 0-28.1 22.8-50.8 50.8-50.8z"/>
		</g>
	</g>
</svg>